<svg width="24" height="24" viewBox="0 0 24 24" fill="none" xmlns="http://www.w3.org/2000/svg">
<circle cx="12" cy="12" r="12" fill="#F8F8F8"/>
<path d="M6.64768 12.6854C6.61769 12.4667 6.6027 12.2406 6.6027 12C6.6027 11.7667 6.61769 11.5333 6.65517 11.3146L5.13343 10.1625C4.9985 10.0604 4.96102 9.86354 5.04348 9.71771L6.48276 7.29688C6.57271 7.13646 6.76012 7.08542 6.92504 7.13646L8.71664 7.83646C9.09146 7.55937 9.48876 7.32604 9.93104 7.15104L10.2009 5.29896C10.2309 5.12396 10.3808 5 10.5607 5H13.4393C13.6192 5 13.7616 5.12396 13.7916 5.29896L14.0615 7.15104C14.5037 7.32604 14.9085 7.56667 15.2759 7.83646L17.0675 7.13646C17.2324 7.07812 17.4198 7.13646 17.5097 7.29688L18.9415 9.71771C19.0315 9.87083 19.0015 10.0604 18.8516 10.1625L17.3298 11.3146C17.3673 11.5333 17.3973 11.774 17.3973 12C17.3973 12.226 17.3823 12.4667 17.3448 12.6854L18.8666 13.8375C19.0015 13.9396 19.039 14.1365 18.9565 14.2823L17.5172 16.7031C17.4273 16.8635 17.2399 16.9146 17.075 16.8635L15.2834 16.1635C14.9085 16.4406 14.5112 16.674 14.069 16.849L13.7991 18.701C13.7616 18.876 13.6192 19 13.4393 19H10.5607C10.3808 19 10.2309 18.876 10.2084 18.701L9.93853 16.849C9.49625 16.674 9.09145 16.4406 8.72414 16.1635L6.93253 16.8635C6.76762 16.9219 6.58021 16.8635 6.49025 16.7031L5.05097 14.2823C4.96102 14.1219 4.9985 13.9396 5.14093 13.8375L6.64768 12.6854ZM12 14.625C13.4843 14.625 14.6987 13.4437 14.6987 12C14.6987 10.5563 13.4843 9.375 12 9.375C10.5157 9.375 9.30135 10.5563 9.30135 12C9.30135 13.4437 10.5157 14.625 12 14.625Z" fill="#666666"/>
</svg>
